<?xml version="1.0" encoding="UTF-8" standalone="no"?>
<!DOCTYPE svg PUBLIC "-//W3C//DTD SVG 1.1//EN" "http://www.w3.org/Graphics/SVG/1.1/DTD/svg11.dtd">
<svg width="100%" height="100%" viewBox="0 0 1640 480" version="1.1" xmlns="http://www.w3.org/2000/svg" xmlns:xlink="http://www.w3.org/1999/xlink" xml:space="preserve" xmlns:serif="http://www.serif.com/" style="fill-rule:evenodd;clip-rule:evenodd;stroke-linecap:round;stroke-linejoin:round;stroke-miterlimit:1.5;">
    <g transform="matrix(17.364,0,0,10.6273,-7821.99,-2351.45)">
        <g transform="matrix(12,0,0,12,473.712,265.05)">
            <path d="M0.338,-0.347C0.329,-0.347 0.324,-0.342 0.324,-0.333L0.324,-0.293C0.324,-0.276 0.315,-0.267 0.298,-0.267L0.258,-0.267C0.24,-0.267 0.231,-0.276 0.231,-0.293L0.231,-0.413C0.231,-0.45 0.217,-0.477 0.188,-0.493C0.217,-0.51 0.231,-0.536 0.231,-0.573L0.231,-0.733C0.231,-0.742 0.227,-0.747 0.218,-0.747C0.209,-0.747 0.204,-0.742 0.204,-0.733L0.204,-0.573C0.204,-0.546 0.194,-0.527 0.174,-0.516C0.163,-0.51 0.151,-0.507 0.138,-0.507L0.071,-0.507L0.071,-0.733C0.071,-0.742 0.067,-0.747 0.058,-0.747C0.049,-0.747 0.044,-0.742 0.044,-0.733L0.044,-0.507L0.013,-0.507C0.004,-0.507 0,-0.502 0,-0.493C0,-0.484 0.004,-0.48 0.013,-0.48L0.044,-0.48L0.044,-0.253C0.044,-0.244 0.049,-0.24 0.058,-0.24C0.067,-0.24 0.071,-0.244 0.071,-0.253L0.071,-0.48L0.138,-0.48C0.151,-0.48 0.163,-0.477 0.174,-0.471C0.194,-0.46 0.204,-0.44 0.204,-0.413L0.204,-0.293C0.204,-0.278 0.209,-0.265 0.22,-0.255C0.23,-0.245 0.243,-0.24 0.258,-0.24L0.298,-0.24C0.313,-0.24 0.326,-0.245 0.336,-0.255C0.346,-0.265 0.351,-0.278 0.351,-0.293L0.351,-0.333C0.351,-0.342 0.347,-0.347 0.338,-0.347Z" style="fill:rgb(0,177,23);fill-rule:nonzero;"/>
        </g>
        <g transform="matrix(12,0,0,12,477.612,265.05)">
            <path d="M0.133,-0.347C0.124,-0.347 0.119,-0.342 0.119,-0.333L0.119,-0.293C0.119,-0.276 0.11,-0.267 0.093,-0.267L0.053,-0.267C0.035,-0.267 0.026,-0.276 0.026,-0.293L0.026,-0.653C0.026,-0.662 0.022,-0.667 0.013,-0.667C0.004,-0.667 -0.001,-0.662 -0.001,-0.653L-0.001,-0.293C-0.001,-0.278 0.004,-0.265 0.015,-0.255C0.025,-0.245 0.038,-0.24 0.053,-0.24L0.093,-0.24C0.108,-0.24 0.121,-0.245 0.131,-0.255C0.141,-0.265 0.146,-0.278 0.146,-0.293L0.146,-0.333C0.146,-0.342 0.142,-0.347 0.133,-0.347ZM0.031,-0.733L0.031,-0.738C0.031,-0.75 0.025,-0.756 0.013,-0.756C0.001,-0.756 -0.005,-0.75 -0.005,-0.738L-0.005,-0.733C-0.005,-0.722 0.001,-0.716 0.013,-0.716C0.025,-0.716 0.031,-0.722 0.031,-0.733Z" style="fill:rgb(0,177,23);fill-rule:nonzero;"/>
        </g>
        <g transform="matrix(12,0,0,12,479.028,265.05)">
            <path d="M0.307,-0.293L0.307,-0.333C0.307,-0.342 0.302,-0.347 0.293,-0.347C0.284,-0.347 0.28,-0.342 0.28,-0.333L0.28,-0.293C0.28,-0.276 0.271,-0.267 0.253,-0.267L0.213,-0.267C0.196,-0.267 0.187,-0.276 0.187,-0.293L0.187,-0.733C0.187,-0.742 0.182,-0.747 0.173,-0.747C0.164,-0.747 0.16,-0.742 0.16,-0.733L0.16,-0.641C0.143,-0.658 0.121,-0.667 0.093,-0.667C0.066,-0.667 0.043,-0.658 0.026,-0.641C0.009,-0.623 0,-0.6 0,-0.573L0,-0.333C0,-0.306 0.009,-0.284 0.026,-0.267C0.043,-0.249 0.066,-0.24 0.093,-0.24C0.124,-0.24 0.148,-0.25 0.165,-0.271C0.174,-0.25 0.19,-0.24 0.213,-0.24L0.253,-0.24C0.268,-0.24 0.281,-0.245 0.292,-0.255C0.302,-0.265 0.307,-0.278 0.307,-0.293ZM0.093,-0.267C0.066,-0.267 0.047,-0.277 0.036,-0.297C0.03,-0.308 0.027,-0.32 0.027,-0.333L0.027,-0.573C0.027,-0.593 0.033,-0.609 0.045,-0.622C0.057,-0.634 0.073,-0.64 0.093,-0.64C0.114,-0.64 0.13,-0.634 0.142,-0.622C0.154,-0.609 0.16,-0.593 0.16,-0.573L0.16,-0.333C0.16,-0.32 0.157,-0.308 0.151,-0.297C0.14,-0.277 0.12,-0.267 0.093,-0.267Z" style="fill:rgb(0,177,23);fill-rule:nonzero;"/>
        </g>
        <g transform="matrix(12,0,0,12,482.388,265.05)">
            <path d="M0.293,-0.347C0.284,-0.347 0.28,-0.342 0.28,-0.333L0.28,-0.293C0.28,-0.276 0.271,-0.267 0.253,-0.267L0.213,-0.267C0.196,-0.267 0.187,-0.276 0.187,-0.293L0.187,-0.573C0.187,-0.6 0.178,-0.623 0.161,-0.641C0.144,-0.658 0.121,-0.667 0.093,-0.667C0.066,-0.667 0.044,-0.658 0.027,-0.641L0.027,-0.693C0.027,-0.702 0.022,-0.707 0.013,-0.707C0.004,-0.707 0,-0.702 0,-0.693L0,-0.253C0,-0.244 0.004,-0.24 0.013,-0.24C0.022,-0.24 0.027,-0.244 0.027,-0.253L0.027,-0.573C0.027,-0.593 0.033,-0.609 0.045,-0.622C0.057,-0.634 0.073,-0.64 0.093,-0.64C0.114,-0.64 0.13,-0.634 0.142,-0.622C0.154,-0.609 0.16,-0.593 0.16,-0.573L0.16,-0.333C0.16,-0.32 0.157,-0.308 0.151,-0.297C0.14,-0.277 0.12,-0.267 0.093,-0.267C0.084,-0.267 0.08,-0.262 0.08,-0.253C0.08,-0.244 0.084,-0.24 0.093,-0.24C0.124,-0.24 0.148,-0.25 0.165,-0.271C0.174,-0.25 0.19,-0.24 0.213,-0.24L0.253,-0.24C0.268,-0.24 0.281,-0.245 0.292,-0.255C0.302,-0.265 0.307,-0.278 0.307,-0.293L0.307,-0.333C0.307,-0.342 0.302,-0.347 0.293,-0.347Z" style="fill:rgb(0,177,23);fill-rule:nonzero;"/>
        </g>
        <g transform="matrix(12,0,0,12,488.748,265.05)">
            <path d="M0.293,-0.387C0.284,-0.387 0.28,-0.382 0.28,-0.373C0.28,-0.329 0.263,-0.298 0.228,-0.281C0.209,-0.272 0.191,-0.267 0.173,-0.267L0.093,-0.267C0.066,-0.267 0.047,-0.277 0.036,-0.297C0.03,-0.308 0.027,-0.32 0.027,-0.333L0.027,-0.653C0.027,-0.673 0.033,-0.689 0.045,-0.702C0.057,-0.714 0.073,-0.72 0.093,-0.72C0.114,-0.72 0.13,-0.714 0.142,-0.702C0.154,-0.689 0.16,-0.673 0.16,-0.653C0.16,-0.644 0.164,-0.64 0.173,-0.64C0.182,-0.64 0.187,-0.644 0.187,-0.653C0.187,-0.68 0.178,-0.703 0.161,-0.721C0.144,-0.738 0.121,-0.747 0.093,-0.747C0.066,-0.747 0.043,-0.738 0.026,-0.721C0.009,-0.703 0,-0.68 0,-0.653L0,-0.333C0,-0.306 0.009,-0.284 0.026,-0.267C0.043,-0.249 0.066,-0.24 0.093,-0.24L0.173,-0.24C0.262,-0.24 0.307,-0.284 0.307,-0.373C0.307,-0.382 0.302,-0.387 0.293,-0.387Z" style="fill:rgb(0,177,23);fill-rule:nonzero;"/>
        </g>
        <g transform="matrix(12,0,0,12,492.108,265.05)">
            <path d="M0.293,-0.347C0.284,-0.347 0.28,-0.342 0.28,-0.333L0.28,-0.293C0.28,-0.276 0.271,-0.267 0.253,-0.267L0.173,-0.267C0.156,-0.267 0.147,-0.276 0.147,-0.293L0.147,-0.573C0.147,-0.591 0.156,-0.6 0.173,-0.6C0.182,-0.6 0.187,-0.604 0.187,-0.613L0.187,-0.653C0.187,-0.662 0.182,-0.667 0.173,-0.667L0.027,-0.667L0.027,-0.693C0.027,-0.702 0.022,-0.707 0.013,-0.707C0.004,-0.707 0,-0.702 0,-0.693L0,-0.253C0,-0.244 0.004,-0.24 0.013,-0.24C0.022,-0.24 0.027,-0.244 0.027,-0.253L0.027,-0.64L0.16,-0.64L0.16,-0.625C0.133,-0.618 0.12,-0.601 0.12,-0.573L0.12,-0.293C0.12,-0.278 0.125,-0.265 0.135,-0.255C0.145,-0.245 0.158,-0.24 0.173,-0.24L0.253,-0.24C0.268,-0.24 0.281,-0.245 0.292,-0.255C0.302,-0.265 0.307,-0.278 0.307,-0.293L0.307,-0.333C0.307,-0.342 0.302,-0.347 0.293,-0.347Z" style="fill:rgb(0,177,23);fill-rule:nonzero;"/>
        </g>
        <g transform="matrix(12,0,0,12,495.468,265.05)">
            <path d="M0,-0.573L0,-0.333C0,-0.306 0.009,-0.284 0.026,-0.267C0.043,-0.249 0.066,-0.24 0.093,-0.24L0.213,-0.24C0.24,-0.24 0.263,-0.249 0.281,-0.266C0.298,-0.283 0.307,-0.306 0.307,-0.333C0.307,-0.342 0.302,-0.347 0.293,-0.347C0.284,-0.347 0.28,-0.342 0.28,-0.333C0.28,-0.32 0.277,-0.308 0.271,-0.297C0.26,-0.277 0.24,-0.267 0.213,-0.267L0.093,-0.267C0.066,-0.267 0.047,-0.277 0.036,-0.297C0.03,-0.308 0.027,-0.32 0.027,-0.333L0.027,-0.4L0.093,-0.4C0.12,-0.4 0.143,-0.409 0.161,-0.426C0.178,-0.443 0.187,-0.466 0.187,-0.493L0.187,-0.573C0.187,-0.6 0.178,-0.623 0.161,-0.641C0.144,-0.658 0.121,-0.667 0.093,-0.667C0.066,-0.667 0.043,-0.658 0.026,-0.641C0.009,-0.623 0,-0.6 0,-0.573ZM0.027,-0.573C0.027,-0.593 0.033,-0.609 0.045,-0.622C0.057,-0.634 0.073,-0.64 0.093,-0.64C0.114,-0.64 0.13,-0.634 0.142,-0.622C0.154,-0.609 0.16,-0.593 0.16,-0.573L0.16,-0.493C0.16,-0.48 0.157,-0.468 0.151,-0.457C0.14,-0.437 0.12,-0.427 0.093,-0.427L0.027,-0.427L0.027,-0.573Z" style="fill:rgb(0,177,23);fill-rule:nonzero;"/>
        </g>
        <g transform="matrix(12,0,0,12,498.828,265.05)">
            <path d="M0.093,-0.24C0.124,-0.24 0.148,-0.25 0.165,-0.271C0.174,-0.25 0.19,-0.24 0.213,-0.24L0.253,-0.24C0.268,-0.24 0.281,-0.245 0.292,-0.255C0.302,-0.265 0.307,-0.278 0.307,-0.293L0.307,-0.333C0.307,-0.342 0.302,-0.347 0.293,-0.347C0.284,-0.347 0.28,-0.342 0.28,-0.333L0.28,-0.293C0.28,-0.276 0.271,-0.267 0.253,-0.267L0.213,-0.267C0.196,-0.267 0.187,-0.276 0.187,-0.293L0.187,-0.573C0.187,-0.6 0.178,-0.623 0.161,-0.641C0.144,-0.658 0.121,-0.667 0.093,-0.667C0.066,-0.667 0.043,-0.658 0.026,-0.641C0.009,-0.623 0,-0.6 0,-0.573C0,-0.564 0.004,-0.56 0.013,-0.56C0.022,-0.56 0.027,-0.564 0.027,-0.573C0.027,-0.593 0.033,-0.609 0.045,-0.622C0.057,-0.634 0.073,-0.64 0.093,-0.64C0.114,-0.64 0.13,-0.634 0.142,-0.622C0.154,-0.609 0.16,-0.593 0.16,-0.573L0.16,-0.507L0.093,-0.507C0.066,-0.507 0.043,-0.498 0.026,-0.481C0.009,-0.463 0,-0.44 0,-0.413L0,-0.333C0,-0.306 0.009,-0.284 0.026,-0.267C0.043,-0.249 0.066,-0.24 0.093,-0.24ZM0.027,-0.413C0.027,-0.44 0.037,-0.46 0.057,-0.471C0.068,-0.477 0.08,-0.48 0.093,-0.48L0.16,-0.48L0.16,-0.333C0.16,-0.32 0.157,-0.308 0.151,-0.297C0.14,-0.277 0.12,-0.267 0.093,-0.267C0.066,-0.267 0.047,-0.277 0.036,-0.297C0.03,-0.308 0.027,-0.32 0.027,-0.333L0.027,-0.413Z" style="fill:rgb(0,177,23);fill-rule:nonzero;"/>
        </g>
        <g transform="matrix(12,0,0,12,502.188,265.05)">
            <path d="M0.053,-0.24L0.133,-0.24C0.148,-0.24 0.161,-0.245 0.172,-0.255C0.182,-0.265 0.187,-0.278 0.187,-0.293L0.187,-0.333C0.187,-0.342 0.182,-0.347 0.173,-0.347C0.164,-0.347 0.16,-0.342 0.16,-0.333L0.16,-0.293C0.16,-0.276 0.151,-0.267 0.133,-0.267L0.053,-0.267C0.036,-0.267 0.027,-0.276 0.027,-0.293L0.027,-0.64L0.093,-0.64C0.102,-0.64 0.107,-0.644 0.107,-0.653C0.107,-0.662 0.102,-0.667 0.093,-0.667L0.027,-0.667L0.027,-0.733C0.027,-0.742 0.022,-0.747 0.013,-0.747C0.004,-0.747 0,-0.742 0,-0.733L0,-0.293C0,-0.278 0.005,-0.265 0.015,-0.255C0.025,-0.245 0.038,-0.24 0.053,-0.24Z" style="fill:rgb(0,177,23);fill-rule:nonzero;"/>
        </g>
        <g transform="matrix(12,0,0,12,504.108,265.05)">
            <path d="M0.133,-0.347C0.124,-0.347 0.119,-0.342 0.119,-0.333L0.119,-0.293C0.119,-0.276 0.11,-0.267 0.093,-0.267L0.053,-0.267C0.035,-0.267 0.026,-0.276 0.026,-0.293L0.026,-0.653C0.026,-0.662 0.022,-0.667 0.013,-0.667C0.004,-0.667 -0.001,-0.662 -0.001,-0.653L-0.001,-0.293C-0.001,-0.278 0.004,-0.265 0.015,-0.255C0.025,-0.245 0.038,-0.24 0.053,-0.24L0.093,-0.24C0.108,-0.24 0.121,-0.245 0.131,-0.255C0.141,-0.265 0.146,-0.278 0.146,-0.293L0.146,-0.333C0.146,-0.342 0.142,-0.347 0.133,-0.347ZM0.031,-0.733L0.031,-0.738C0.031,-0.75 0.025,-0.756 0.013,-0.756C0.001,-0.756 -0.005,-0.75 -0.005,-0.738L-0.005,-0.733C-0.005,-0.722 0.001,-0.716 0.013,-0.716C0.025,-0.716 0.031,-0.722 0.031,-0.733Z" style="fill:rgb(0,177,23);fill-rule:nonzero;"/>
        </g>
        <g transform="matrix(12,0,0,12,505.524,265.05)">
            <path d="M0.187,-0.413L0.187,-0.606C0.195,-0.602 0.204,-0.6 0.213,-0.6L0.293,-0.6C0.302,-0.6 0.307,-0.604 0.307,-0.613C0.307,-0.622 0.302,-0.627 0.293,-0.627L0.213,-0.627C0.197,-0.627 0.188,-0.636 0.186,-0.655C0.185,-0.663 0.181,-0.667 0.173,-0.667C0.164,-0.667 0.16,-0.662 0.16,-0.653L0.16,-0.413C0.16,-0.371 0.148,-0.338 0.125,-0.313C0.101,-0.288 0.068,-0.273 0.027,-0.268L0.027,-0.653C0.027,-0.662 0.022,-0.667 0.013,-0.667C0.004,-0.667 0,-0.662 0,-0.653L0,-0.253C0,-0.244 0.004,-0.24 0.013,-0.24C0.043,-0.24 0.072,-0.247 0.101,-0.262C0.158,-0.291 0.187,-0.342 0.187,-0.413Z" style="fill:rgb(0,177,23);fill-rule:nonzero;"/>
        </g>
        <g transform="matrix(12,0,0,12,508.824,265.05)">
            <path d="M0,-0.573L0,-0.333C0,-0.306 0.009,-0.284 0.026,-0.267C0.043,-0.249 0.066,-0.24 0.093,-0.24L0.213,-0.24C0.24,-0.24 0.263,-0.249 0.281,-0.266C0.298,-0.283 0.307,-0.306 0.307,-0.333C0.307,-0.342 0.302,-0.347 0.293,-0.347C0.284,-0.347 0.28,-0.342 0.28,-0.333C0.28,-0.32 0.277,-0.308 0.271,-0.297C0.26,-0.277 0.24,-0.267 0.213,-0.267L0.093,-0.267C0.066,-0.267 0.047,-0.277 0.036,-0.297C0.03,-0.308 0.027,-0.32 0.027,-0.333L0.027,-0.4L0.093,-0.4C0.12,-0.4 0.143,-0.409 0.161,-0.426C0.178,-0.443 0.187,-0.466 0.187,-0.493L0.187,-0.573C0.187,-0.6 0.178,-0.623 0.161,-0.641C0.144,-0.658 0.121,-0.667 0.093,-0.667C0.066,-0.667 0.043,-0.658 0.026,-0.641C0.009,-0.623 0,-0.6 0,-0.573ZM0.027,-0.573C0.027,-0.593 0.033,-0.609 0.045,-0.622C0.057,-0.634 0.073,-0.64 0.093,-0.64C0.114,-0.64 0.13,-0.634 0.142,-0.622C0.154,-0.609 0.16,-0.593 0.16,-0.573L0.16,-0.493C0.16,-0.48 0.157,-0.468 0.151,-0.457C0.14,-0.437 0.12,-0.427 0.093,-0.427L0.027,-0.427L0.027,-0.573Z" style="fill:rgb(0,177,23);fill-rule:nonzero;"/>
        </g>
        <g transform="matrix(12,0,0,12,515.184,265.05)">
            <path d="M0.185,-0.573L0.185,-0.653C0.185,-0.68 0.176,-0.703 0.159,-0.721C0.142,-0.738 0.119,-0.747 0.092,-0.747L0.012,-0.747C0.003,-0.747 -0.002,-0.742 -0.002,-0.733L-0.002,-0.507L-0.033,-0.507C-0.042,-0.507 -0.046,-0.502 -0.046,-0.493C-0.046,-0.484 -0.042,-0.48 -0.033,-0.48L-0.002,-0.48L-0.002,-0.253C-0.002,-0.244 0.003,-0.24 0.012,-0.24C0.021,-0.24 0.025,-0.244 0.025,-0.253L0.025,-0.48L0.092,-0.48C0.119,-0.48 0.142,-0.489 0.159,-0.507C0.176,-0.524 0.185,-0.546 0.185,-0.573ZM0.025,-0.72L0.092,-0.72C0.105,-0.72 0.117,-0.717 0.128,-0.711C0.148,-0.7 0.158,-0.68 0.158,-0.653L0.158,-0.573C0.158,-0.56 0.155,-0.548 0.149,-0.537C0.138,-0.517 0.119,-0.507 0.092,-0.507L0.025,-0.507L0.025,-0.72Z" style="fill:rgb(0,177,23);fill-rule:nonzero;"/>
        </g>
        <g transform="matrix(12,0,0,12,518.04,265.05)">
            <path d="M0.093,-0.24C0.124,-0.24 0.148,-0.25 0.165,-0.271C0.174,-0.25 0.19,-0.24 0.213,-0.24L0.253,-0.24C0.268,-0.24 0.281,-0.245 0.292,-0.255C0.302,-0.265 0.307,-0.278 0.307,-0.293L0.307,-0.333C0.307,-0.342 0.302,-0.347 0.293,-0.347C0.284,-0.347 0.28,-0.342 0.28,-0.333L0.28,-0.293C0.28,-0.276 0.271,-0.267 0.253,-0.267L0.213,-0.267C0.196,-0.267 0.187,-0.276 0.187,-0.293L0.187,-0.573C0.187,-0.6 0.178,-0.623 0.161,-0.641C0.144,-0.658 0.121,-0.667 0.093,-0.667C0.066,-0.667 0.043,-0.658 0.026,-0.641C0.009,-0.623 0,-0.6 0,-0.573C0,-0.564 0.004,-0.56 0.013,-0.56C0.022,-0.56 0.027,-0.564 0.027,-0.573C0.027,-0.593 0.033,-0.609 0.045,-0.622C0.057,-0.634 0.073,-0.64 0.093,-0.64C0.114,-0.64 0.13,-0.634 0.142,-0.622C0.154,-0.609 0.16,-0.593 0.16,-0.573L0.16,-0.507L0.093,-0.507C0.066,-0.507 0.043,-0.498 0.026,-0.481C0.009,-0.463 0,-0.44 0,-0.413L0,-0.333C0,-0.306 0.009,-0.284 0.026,-0.267C0.043,-0.249 0.066,-0.24 0.093,-0.24ZM0.027,-0.413C0.027,-0.44 0.037,-0.46 0.057,-0.471C0.068,-0.477 0.08,-0.48 0.093,-0.48L0.16,-0.48L0.16,-0.333C0.16,-0.32 0.157,-0.308 0.151,-0.297C0.14,-0.277 0.12,-0.267 0.093,-0.267C0.066,-0.267 0.047,-0.277 0.036,-0.297C0.03,-0.308 0.027,-0.32 0.027,-0.333L0.027,-0.413Z" style="fill:rgb(0,177,23);fill-rule:nonzero;"/>
        </g>
        <g transform="matrix(12,0,0,12,521.4,265.05)">
            <path d="M0.293,-0.347C0.284,-0.347 0.28,-0.342 0.28,-0.333L0.28,-0.293C0.28,-0.276 0.271,-0.267 0.253,-0.267L0.173,-0.267C0.156,-0.267 0.147,-0.276 0.147,-0.293L0.147,-0.573C0.147,-0.591 0.156,-0.6 0.173,-0.6C0.182,-0.6 0.187,-0.604 0.187,-0.613L0.187,-0.653C0.187,-0.662 0.182,-0.667 0.173,-0.667L0.027,-0.667L0.027,-0.693C0.027,-0.702 0.022,-0.707 0.013,-0.707C0.004,-0.707 0,-0.702 0,-0.693L0,-0.253C0,-0.244 0.004,-0.24 0.013,-0.24C0.022,-0.24 0.027,-0.244 0.027,-0.253L0.027,-0.64L0.16,-0.64L0.16,-0.625C0.133,-0.618 0.12,-0.601 0.12,-0.573L0.12,-0.293C0.12,-0.278 0.125,-0.265 0.135,-0.255C0.145,-0.245 0.158,-0.24 0.173,-0.24L0.253,-0.24C0.268,-0.24 0.281,-0.245 0.292,-0.255C0.302,-0.265 0.307,-0.278 0.307,-0.293L0.307,-0.333C0.307,-0.342 0.302,-0.347 0.293,-0.347Z" style="fill:rgb(0,177,23);fill-rule:nonzero;"/>
        </g>
        <g transform="matrix(12,0,0,12,524.76,265.05)">
            <path d="M0.093,-0.4C0.113,-0.4 0.129,-0.394 0.142,-0.382C0.154,-0.37 0.16,-0.354 0.16,-0.333L0.16,-0.293C0.16,-0.278 0.165,-0.265 0.175,-0.255C0.185,-0.245 0.198,-0.24 0.213,-0.24L0.253,-0.24C0.268,-0.24 0.281,-0.245 0.292,-0.255C0.302,-0.265 0.307,-0.278 0.307,-0.293L0.307,-0.333C0.307,-0.342 0.302,-0.347 0.293,-0.347C0.284,-0.347 0.28,-0.342 0.28,-0.333L0.28,-0.293C0.28,-0.276 0.271,-0.267 0.253,-0.267L0.213,-0.267C0.196,-0.267 0.187,-0.276 0.187,-0.293L0.187,-0.333C0.187,-0.37 0.172,-0.397 0.143,-0.413C0.172,-0.43 0.187,-0.456 0.187,-0.493L0.187,-0.653C0.187,-0.662 0.182,-0.667 0.173,-0.667C0.164,-0.667 0.16,-0.662 0.16,-0.653L0.16,-0.493C0.16,-0.473 0.154,-0.457 0.142,-0.445C0.129,-0.433 0.113,-0.427 0.093,-0.427L0.027,-0.427L0.027,-0.733C0.027,-0.742 0.022,-0.747 0.013,-0.747C0.004,-0.747 0,-0.742 0,-0.733L0,-0.253C0,-0.244 0.004,-0.24 0.013,-0.24C0.022,-0.24 0.027,-0.244 0.027,-0.253L0.027,-0.4L0.093,-0.4Z" style="fill:rgb(0,177,23);fill-rule:nonzero;"/>
        </g>
    </g>
    <g transform="matrix(1,0,0,1.01166,-122.544,-487.105)">
        <path d="M520.955,625.88C511.425,630.791 500.336,634.244 490.158,633.639C479.836,633.025 471.342,621.933 473.53,617.008L549.258,617.336C549.258,617.336 556.58,619.599 550.104,623.882C543.627,628.166 507.001,642.827 507.001,642.827C507.001,642.827 546.259,670.743 528.158,697.711C516.334,715.327 482.457,702.363 482.457,702.363C464.633,675.026 493.375,665.941 502.425,683.301C517.497,712.214 461.865,717.354 465.576,662.051L565.589,662.259" style="fill:none;stroke:rgb(0,177,23);stroke-width:5.97px;"/>
    </g>
    <g transform="matrix(1,0,0,1.0454,-122.544,-506.568)">
        <path d="M664.4,641.584C664.4,641.584 646.044,641.394 627.066,646.071C600.621,652.587 606.925,611.849 612.978,610.73C617.089,609.971 638.4,640.316 611.538,650.606C596.129,656.508 583.511,665.907 584.491,681.509C586.588,714.871 662.742,698.981 662.742,698.981" style="fill:none;stroke:rgb(0,177,23);stroke-width:5.87px;"/>
    </g>
    <g transform="matrix(1.29322,0.125956,-0.124085,1.31272,-225.548,-754.66)">
        <path d="M647.023,637.142C647.023,637.142 643.099,634.86 642.113,630.499C640.491,623.319 644.81,611.882 646.815,611.915C649.285,611.954 653.241,623.547 651.814,631.023C650.877,635.935 647.023,637.142 647.023,637.142Z" style="fill:none;stroke:rgb(0,177,23);stroke-width:4.58px;"/>
    </g>
    <g transform="matrix(1.06686,0.752548,-0.741371,1.08295,322.355,-1013.26)">
        <path d="M647.023,637.142C647.023,637.142 643.099,634.86 642.113,630.499C640.491,623.319 644.81,611.882 646.815,611.915C649.285,611.954 653.241,623.547 651.814,631.023C650.877,635.935 647.023,637.142 647.023,637.142Z" style="fill:none;stroke:rgb(0,177,23);stroke-width:4.55px;"/>
    </g>
    <g transform="matrix(1.26967,0,0,1.01453,-316.577,-487.358)">
        <path d="M775.887,673.308C779.302,714.7 719.386,712.558 720.737,685.482L722.139,663.439C722.139,663.439 764.835,646.246 766.718,658.951C768.529,671.17 722.139,663.439 722.139,663.439C722.139,663.439 699.536,650.831 698.145,662.11C696.969,671.64 722.139,663.439 722.139,663.439L723.996,635.163C723.996,635.163 757.447,619.592 757.112,632.767C756.846,643.251 723.996,635.163 723.996,635.163C723.996,635.163 704.084,623.992 703.613,634.586C703.114,645.79 723.996,635.163 723.996,635.163L725.341,612.621" style="fill:none;stroke:rgb(0,177,23);stroke-width:5.22px;"/>
    </g>
    <g transform="matrix(1,0,0,1,-122.544,-478.862)">
        <path d="M475.021,772.836C485.609,766.427 495.822,752.64 505.749,733.235C505.749,733.235 496.129,728.851 492.293,735.551C488.456,742.251 497.01,747.292 497.01,747.292L549.172,747.396C552.644,747.269 553.671,748.906 553.074,753.348C547.024,798.314 525.622,812.173 490.871,820.418" style="fill:none;stroke:rgb(0,177,23);stroke-width:6px;"/>
    </g>
    <g transform="matrix(1,0,0,1,861.421,-478.862)">
        <path d="M475.021,772.836C485.609,766.427 495.822,752.64 505.749,733.235C505.749,733.235 496.129,728.851 492.293,735.551C488.456,742.251 497.01,747.292 497.01,747.292L549.172,747.396C552.644,747.269 553.671,748.906 553.074,753.348C547.024,798.314 525.622,812.173 490.871,820.418" style="fill:none;stroke:rgb(0,177,23);stroke-width:6px;"/>
    </g>
    <g transform="matrix(1,0,0,1,-122.544,-478.862)">
        <path d="M590.096,735.25L589.972,790.884C589.969,792.54 591.31,793.887 592.966,793.891C594.621,793.894 595.969,792.553 595.972,790.897L596.096,735.264C596.1,733.608 594.759,732.261 593.103,732.257C591.447,732.253 590.1,733.595 590.096,735.25Z" style="fill:rgb(0,177,23);"/>
    </g>
    <g transform="matrix(1,0,0,1,-122.544,-478.862)">
        <path d="M656.07,734.085C658.017,772.625 654.353,792.631 644.11,803.737C634.718,813.92 619.979,816.338 599.935,819.205C598.296,819.439 597.156,820.96 597.39,822.599C597.625,824.239 599.146,825.379 600.785,825.145C622.534,822.034 638.329,818.854 648.52,807.805C659.427,795.98 664.135,774.82 662.062,733.782C661.979,732.129 660.569,730.854 658.915,730.937C657.261,731.021 655.987,732.431 656.07,734.085Z" style="fill:rgb(0,177,23);"/>
    </g>
    <g transform="matrix(1,0,0,1,-122.544,-478.862)">
        <path d="M734.961,748.771C734.558,749.286 734.324,749.932 734.324,750.62L734.324,811.249C732.741,809.73 730.825,808.16 728.578,806.771C724.484,804.239 719.304,802.299 713.064,802.299C706.755,802.299 701.516,804.348 697.382,807.014C689.914,811.831 686.114,818.675 686.114,818.675C685.594,819.604 685.606,820.739 686.145,821.657C686.683,822.575 687.668,823.139 688.732,823.139L786.221,823.139C787.877,823.139 789.221,821.795 789.221,820.139C789.221,818.483 787.877,817.139 786.221,817.139L740.324,817.139L740.324,758.06C741.681,759.197 743.273,760.362 745.08,761.407C748.726,763.514 753.23,765.13 758.421,765.13C763.021,765.13 767.116,763.413 770.568,760.96C777.941,755.721 782.248,747.11 782.248,747.11C782.712,746.18 782.661,745.077 782.115,744.193C781.568,743.309 780.603,742.771 779.563,742.771L695.971,742.771C694.315,742.771 692.971,744.116 692.971,745.771C692.971,747.427 694.315,748.771 695.971,748.771L734.961,748.771ZM731.698,817.139C730.173,815.459 728.078,813.516 725.423,811.874C722.16,809.856 718.036,808.299 713.064,808.299C708.061,808.299 703.913,809.942 700.634,812.056C698.174,813.643 696.194,815.493 694.705,817.139L731.698,817.139ZM739.686,748.771C739.717,748.81 739.747,748.85 739.776,748.891C739.776,748.891 742.814,753.167 748.083,756.212C750.91,757.847 754.395,759.13 758.421,759.13C762.624,759.13 766.194,757.023 769.043,754.521C771.155,752.665 772.885,750.57 774.177,748.771L739.686,748.771Z" style="fill:rgb(0,177,23);"/>
    </g>
    <g transform="matrix(1,0,0,1,-122.544,-478.862)">
        <path d="M855.493,769.271L855.493,822.18C855.493,823.836 856.838,825.18 858.493,825.18C860.149,825.18 861.493,823.836 861.493,822.18L861.493,768.916C865.215,769.626 871.041,770.212 876.687,768.631C880.772,767.487 884.759,765.252 887.889,761.252C891.022,757.249 892.387,752.619 892.716,748.078C893.447,737.972 888.934,728.387 888.934,728.387C888.478,727.419 887.54,726.768 886.473,726.678C885.407,726.588 884.373,727.073 883.761,727.951C873.756,742.294 863.334,754.314 852.472,763.94C839.631,775.318 826.188,783.338 812.102,787.861C810.525,788.367 809.657,790.058 810.163,791.635C810.669,793.211 812.36,794.08 813.936,793.574C828.413,788.925 842.266,780.802 855.493,769.271ZM862.303,762.98C864.785,763.487 868.6,763.976 872.564,763.384C876.333,762.821 880.269,761.253 883.164,757.554C886.165,753.72 886.922,749.095 886.782,744.846C886.674,741.568 886.03,738.49 885.341,736.067C877.889,746.283 870.209,755.26 862.303,762.98Z" style="fill:rgb(0,177,23);"/>
    </g>
    <g transform="matrix(0.840799,0,0,0.840799,215.997,-347.97)">
        <path d="M854.925,770.511L854.925,822.18C854.925,824.149 856.524,825.748 858.493,825.748C860.463,825.748 862.061,824.149 862.061,822.18L862.061,769.594C865.855,770.253 871.429,770.693 876.841,769.178C881.033,768.004 885.123,765.707 888.336,761.602C891.544,757.504 892.946,752.767 893.282,748.119C894.024,737.868 889.448,728.145 889.448,728.145C888.905,726.994 887.789,726.219 886.521,726.112C885.252,726.005 884.023,726.582 883.295,727.626C873.318,741.929 862.927,753.916 852.095,763.515C839.319,774.837 825.944,782.82 811.928,787.32C810.053,787.922 809.02,789.933 809.622,791.808C810.224,793.683 812.235,794.717 814.11,794.115C828.313,789.554 841.919,781.668 854.925,770.511ZM863.476,762.624C865.867,763.033 869.119,763.324 872.481,762.822C876.118,762.279 879.922,760.774 882.717,757.204C885.63,753.482 886.35,748.989 886.214,744.864C886.124,742.129 885.655,739.534 885.101,737.356C878.092,746.872 870.884,755.3 863.476,762.624Z" style="fill:rgb(0,177,23);"/>
    </g>
    <g transform="matrix(1,0,0,1,-122.544,-478.862)">
        <path d="M927.232,739.742L995.313,739.742C996.969,739.742 998.313,738.398 998.313,736.742C998.313,735.087 996.969,733.742 995.313,733.742L927.232,733.742C925.576,733.742 924.232,735.087 924.232,736.742C924.232,738.398 925.576,739.742 927.232,739.742Z" style="fill:rgb(0,177,23);"/>
    </g>
    <g transform="matrix(1,0,0,1,-122.544,-478.862)">
        <path d="M966.486,762.267L966.472,762.267L966.453,762.267L916.156,762.267C914.5,762.267 913.156,763.612 913.156,765.267C913.156,766.923 914.5,768.267 916.156,768.267L963.655,768.267C964.403,782.423 961.766,793.512 955.946,801.844C949.254,811.425 938.401,817.261 924.113,820.098C922.489,820.421 921.432,822.001 921.755,823.625C922.077,825.249 923.658,826.306 925.282,825.983C941.311,822.8 953.357,816.029 960.865,805.279C966.104,797.779 969.157,788.294 969.692,776.596C970.553,777.551 971.518,778.488 972.598,779.363C976.273,782.345 981.242,784.655 987.849,784.655C994.524,784.655 999.078,782.308 1002.21,779.315C1008.1,773.687 1008.83,765.536 1008.83,765.536C1008.91,764.697 1008.62,763.865 1008.06,763.243C1007.49,762.621 1006.69,762.267 1005.84,762.267L966.486,762.267ZM971.062,768.267C972.175,770.258 973.89,772.686 976.378,774.704C979.14,776.945 982.884,778.655 987.849,778.655C992.579,778.655 995.845,777.098 998.064,774.977C1000.26,772.873 1001.47,770.282 1002.12,768.267L971.062,768.267Z" style="fill:rgb(0,177,23);"/>
    </g>
    <g transform="matrix(1,0,0,1,-122.544,-478.862)">
        <path d="M995.739,733.919C992.484,734.213 987.534,736.178 981.453,739C978.783,740.24 975.873,741.592 972.794,743.025C967.727,745.381 962.205,747.915 956.619,750.428C951.15,752.889 945.616,755.328 940.306,757.339C937.005,758.589 933.799,759.683 930.757,760.514C925.133,762.051 920.187,762.69 916.507,762.382C914.851,762.373 913.499,763.709 913.49,765.365C913.48,767.021 914.817,768.373 916.473,768.382C920.804,768.075 926.416,766.177 932.865,763.564C936.043,762.276 939.442,760.876 942.957,759.367C950.201,756.258 957.941,752.763 965.294,749.495C968.889,747.897 972.395,746.365 975.728,745.024C977.28,744.399 978.793,743.822 980.263,743.305C983.152,742.288 985.837,741.482 988.246,740.879C991.379,740.095 993.958,739.775 995.796,739.919C997.452,739.903 998.783,738.546 998.767,736.891C998.752,735.235 997.395,733.904 995.739,733.919Z" style="fill:rgb(0,177,23);"/>
    </g>
    <g transform="matrix(1,0,0,1,-122.544,-478.862)">
        <path d="M1119.4,740.765L1186.88,740.765C1186.88,740.765 1192.38,742.458 1190.82,751.596C1185.33,783.637 1175.64,807.403 1128.36,821.768" style="fill:none;stroke:rgb(0,177,23);stroke-width:6px;"/>
    </g>
    <g transform="matrix(1.17955,0.544505,-0.544505,1.17955,647.527,-842.266)">
        <path d="M647.023,637.142C647.023,637.142 643.099,634.86 642.113,630.499C640.491,623.319 644.81,611.882 646.815,611.915C649.285,611.954 653.241,623.547 651.814,631.023C650.877,635.935 647.023,637.142 647.023,637.142Z" style="fill:none;stroke:rgb(0,177,23);stroke-width:4.62px;"/>
    </g>
    <g transform="matrix(0.761904,1.0523,-1.0523,0.761904,1248.84,-901.634)">
        <path d="M647.023,637.142C647.023,637.142 643.099,634.86 642.113,630.499C640.491,623.319 644.81,611.882 646.815,611.915C649.285,611.954 653.241,623.547 651.814,631.023C650.877,635.935 647.023,637.142 647.023,637.142Z" style="fill:none;stroke:rgb(0,177,23);stroke-width:4.62px;"/>
    </g>
    <g transform="matrix(0.881193,1.37171,-0.905372,0.738824,1204.34,-1106.74)">
        <path d="M647.023,637.142C647.023,637.142 643.099,634.86 642.113,630.499C640.491,623.319 644.81,611.882 646.815,611.915C649.285,611.954 653.241,623.547 651.814,631.023C650.877,635.935 647.023,637.142 647.023,637.142Z" style="fill:none;stroke:rgb(0,177,23);stroke-width:4.02px;"/>
    </g>
    <g transform="matrix(-1.65426,-0.02927,0.0148515,-1.06624,2253.03,965.471)">
        <path d="M647.023,637.142C647.023,637.142 643.099,634.86 642.113,630.499C640.491,623.319 644.81,611.882 646.815,611.915C649.285,611.954 653.241,623.547 651.814,631.023C650.877,635.935 647.023,637.142 647.023,637.142Z" style="fill:none;stroke:rgb(0,177,23);stroke-width:4.3px;"/>
    </g>
    <g transform="matrix(-0.299124,1.69032,-1.03803,-0.188596,2053.44,-708.825)">
        <path d="M647.023,637.142C647.023,637.142 643.099,634.86 642.113,630.499C640.491,623.319 644.81,611.882 646.815,611.915C649.285,611.954 653.241,623.547 651.814,631.023C650.877,635.935 647.023,637.142 647.023,637.142Z" style="fill:none;stroke:rgb(0,177,23);stroke-width:4.22px;"/>
    </g>
    <g transform="matrix(1.40276,-0.932405,0.538596,0.992464,-62.4605,222.406)">
        <path d="M647.023,637.142C647.023,637.142 643.099,634.86 642.113,630.499C640.491,623.319 644.81,611.882 646.815,611.915C649.285,611.954 653.241,623.547 651.814,631.023C650.877,635.935 647.023,637.142 647.023,637.142Z" style="fill:none;stroke:rgb(0,177,23);stroke-width:4.37px;"/>
    </g>
    <g transform="matrix(1,0,0,1,-122.544,-478.862)">
        <path d="M1252.64,736.277C1253.41,764.643 1245.99,795.753 1229.12,821.539" style="fill:none;stroke:rgb(0,177,23);stroke-width:6px;"/>
    </g>
    <g transform="matrix(1,0,0,1,-122.544,-478.862)">
        <path d="M1289.74,737.213C1290.83,739.273 1291.87,741.361 1292.88,743.47" style="fill:none;stroke:rgb(0,177,23);stroke-width:6px;"/>
    </g>
    <g transform="matrix(1,0,0,1,-122.544,-478.862)">
        <path d="M1290.17,744.759C1291.63,746.941 1293.06,748.013 1294.8,748.177C1296.1,748.3 1297.48,748.124 1298.93,747.515C1300.38,746.906 1301.89,745.982 1303.49,745.394C1304.08,745.177 1304.67,744.97 1305.27,744.961C1305.57,744.956 1305.85,745.058 1306.12,745.157C1306.41,745.259 1306.54,745.513 1306.77,745.711C1306.87,745.797 1306.85,745.927 1306.93,746.032C1307.12,746.271 1306.92,746.541 1307.05,746.846C1308.37,747.84 1310.25,747.574 1311.25,746.25C1312.24,744.926 1311.98,743.044 1310.65,742.049C1309.64,741.907 1309.08,741.583 1308.17,741.692C1307.82,741.734 1307.54,741.669 1307.2,741.713C1306.54,741.798 1305.95,741.857 1305.29,741.974C1304.35,742.14 1303.38,742.264 1302.4,742.494C1300.46,742.946 1298.48,743.545 1296.8,743.577C1296.45,743.584 1296.17,743.42 1295.89,743.274C1295.8,743.23 1295.86,743.081 1295.79,742.999C1295.64,742.808 1295.68,742.502 1295.59,742.181C1294.87,740.686 1293.08,740.05 1291.59,740.761C1290.09,741.473 1289.46,743.264 1290.17,744.759Z" style="fill:rgb(0,177,23);"/>
    </g>
    <g transform="matrix(1,0,0,1,-122.544,-478.862)">
        <path d="M1308.85,744.448C1316.48,750.184 1326.2,740.835 1320.12,732.397C1315.28,725.676 1303.92,730.73 1305.64,739.879" style="fill:none;stroke:rgb(0,177,23);stroke-width:6px;"/>
    </g>
    <g transform="matrix(1,0,0,1,-122.544,-478.862)">
        <path d="M1298.21,748.297C1298.79,748.182 1299.54,747.185 1300.38,746.936C1301.8,746.518 1303.23,746.092 1304.41,745.517C1305.15,745.156 1305.76,744.713 1306.33,744.205C1306.75,743.832 1307.01,743.374 1307.36,742.881C1307.59,742.561 1307.64,742.2 1307.86,741.818C1308.29,741.091 1308.28,740.411 1308.59,739.323C1308.29,737.696 1306.72,736.624 1305.09,736.931C1303.46,737.239 1302.39,738.809 1302.7,740.436C1302.82,740.575 1302.97,740.568 1303.06,740.71C1303.37,741.196 1303.88,741.373 1303.81,741.766C1303.76,742.012 1303.73,742.274 1303.53,742.423C1302.23,743.411 1299.9,743.092 1298.09,743.318C1296.09,743.567 1294.59,744.384 1293.61,745.594C1292.68,746.742 1292.43,748.472 1293.08,751.28C1293.67,752.826 1295.4,753.601 1296.95,753.009C1298.5,752.417 1299.27,750.681 1298.68,749.134C1298.51,748.833 1298.31,748.613 1298.24,748.366L1298.21,748.297Z" style="fill:rgb(0,177,23);"/>
    </g>
    <g transform="matrix(1,0,0,1,-122.544,-478.862)">
        <path d="M1295.88,750.207C1301.54,764.989 1311.38,801.31 1311.2,822.208" style="fill:none;stroke:rgb(0,177,23);stroke-width:6px;"/>
    </g>
    <g transform="matrix(1,0,0,1,201.751,-478.862)">
        <path d="M962.604,736.981C962.829,740.66 959.555,747.388 954.398,755.438C952.804,757.926 950.976,760.484 949.04,763.123C944.945,768.706 940.288,774.592 935.557,780.425C930.825,786.259 926.048,792.067 921.559,797.376C918.869,800.558 916.287,803.556 913.907,806.307C908.702,812.324 904.565,817.218 902.627,820.485C901.875,821.96 902.462,823.768 903.937,824.52C905.412,825.273 907.22,824.686 907.972,823.211C908.962,820.897 910.808,817.651 913.352,813.787C915.2,810.98 917.338,807.848 919.79,804.552C922.595,800.783 925.78,796.81 929.077,792.697C933.12,787.653 937.385,782.444 941.527,777.302C945.859,771.925 950.036,766.607 953.794,761.702C955.622,759.317 957.354,757.038 958.951,754.884C960.839,752.336 962.526,749.976 963.936,747.808C966.831,743.357 968.417,739.606 968.604,736.981C968.604,735.326 967.26,733.981 965.604,733.981C963.948,733.981 962.604,735.326 962.604,736.981Z" style="fill:rgb(0,177,23);"/>
    </g>
    <g transform="matrix(1,0,0,1,-447.207,-451.384)">
        <path d="M980.654,706.422C981.079,710.133 977.782,714.561 972.725,719.32C970.799,721.132 968.582,722.918 966.203,724.712C961.204,728.481 955.453,732.235 949.701,735.893C944.718,739.062 939.736,742.165 935.156,745.045C932.68,746.602 930.329,748.098 928.145,749.499C923.742,752.321 920.112,754.864 917.787,757.212C915.667,759.352 914.688,761.493 914.49,763.33C914.443,764.985 915.747,766.367 917.402,766.415C919.057,766.463 920.44,765.158 920.488,763.503C920.446,762.66 920.923,761.694 921.735,760.584C923.258,758.501 925.584,756.105 928.592,753.609C930.984,751.625 933.756,749.578 936.77,747.5C941.213,744.437 946.178,741.327 951.143,738.158C956.941,734.459 962.751,730.7 967.919,727.07C970.427,725.309 972.769,723.566 974.925,721.907C979.957,718.036 983.724,714.325 985.478,710.794C986.255,709.231 986.585,707.683 986.649,706.173C986.58,704.519 985.182,703.232 983.527,703.3C981.873,703.369 980.586,704.767 980.654,706.422Z" style="fill:rgb(0,177,23);"/>
    </g>
    <g transform="matrix(1,0,0,1,-122.544,-478.862)">
        <path d="M1338.61,772.288L1436.82,772.288" style="fill:none;stroke:rgb(0,177,23);stroke-width:6px;"/>
    </g>
    <g transform="matrix(14.3791,0,0,14.3791,-19216.2,-10752.3)">
        <path d="M1338.61,772.288L1436.82,772.288" style="fill:none;stroke:rgb(0,177,23);stroke-width:0.42px;"/>
    </g>
    <g transform="matrix(-0.187051,-1.46912,1.00249,-0.129829,665.455,1295.67)">
        <path d="M647.023,637.142C647.023,637.142 643.099,634.86 642.113,630.499C640.491,623.319 644.81,611.882 646.815,611.915C649.285,611.954 653.241,623.547 651.814,631.023C650.877,635.935 647.023,637.142 647.023,637.142Z" style="fill:white;stroke:rgb(0,177,23);stroke-width:4.73px;"/>
    </g>
    <g transform="matrix(1,0,0,1,-158.393,-488.989)">
        <path d="M1611.02,782.615L1604.34,840.038L1663.47,818.59C1660.15,794.78 1649.61,777.857 1615.54,774.788L1689.4,701.093C1719.41,707.442 1728.48,714.828 1735.57,744.667L1674.89,805.726" style="fill:none;stroke:rgb(0,181,23);stroke-width:6px;"/>
    </g>
    <g transform="matrix(1,0,0,1,-158.393,-488.989)">
        <path d="M1696.32,692.712L1713.31,676.753C1742.99,677.423 1757.53,692.464 1758.64,721.7L1743.38,737.756" style="fill:none;stroke:rgb(0,180,24);stroke-width:6px;"/>
    </g>
    <g transform="matrix(0.553953,0,0,0.553953,649.229,-137)">
        <path d="M1278.68,591.656C1278.68,575.901 1265.89,563.11 1250.14,563.11L1019.63,563.11C1003.87,563.11 991.083,575.901 991.083,591.656C991.083,607.411 1003.87,620.201 1019.63,620.201L1250.14,620.201C1265.89,620.201 1278.68,607.411 1278.68,591.656Z" style="fill:none;stroke:rgb(0,180,24);stroke-width:10.83px;"/>
    </g>
    <g transform="matrix(1.258,0,0,0.899966,-329.575,-408.197)">
        <path d="M1278.68,591.656C1278.68,575.901 1269.53,563.11 1258.26,563.11L1011.5,563.11C1000.23,563.11 991.083,575.901 991.083,591.656C991.083,607.411 1000.23,620.201 1011.5,620.201L1258.26,620.201C1269.53,620.201 1278.68,607.411 1278.68,591.656Z" style="fill:none;stroke:rgb(0,180,24);stroke-width:5.49px;"/>
    </g>
    <g transform="matrix(0.159861,0,0,0.159861,1.29285,203.445)">
        <path d="M1910.15,563.11L1019.63,563.11C1003.87,563.11 991.083,575.901 991.083,591.656C991.083,607.411 1003.87,620.201 1019.63,620.201L1899.12,620.201" style="fill:none;stroke:rgb(0,180,24);stroke-width:37.53px;"/>
    </g>
    <g transform="matrix(0.513439,0,0,0.513439,27.3544,88.9301)">
        <path d="M558.7,415.563L601.635,292.6L348.469,292.6L317.697,381.146" style="fill:none;stroke:rgb(0,180,24);stroke-width:11.69px;"/>
    </g>
    <g transform="matrix(0.162677,0,0,0.172742,146.714,226.682)">
        <path d="M996.257,334.903L1011.03,292.6L348.469,292.6L334.19,333.368" style="fill:none;stroke:rgb(0,180,24);stroke-width:35.76px;"/>
    </g>
    <g transform="matrix(0.105753,-0.303293,0.422221,0.147221,40.6961,373.278)">
        <path d="M417.355,436.371L313.346,434.081L321.887,451.231L425.485,453.627" style="fill:none;stroke:rgb(0,180,24);stroke-width:15.41px;"/>
    </g>
    <g transform="matrix(0.105753,-0.303293,0.422221,0.147221,-56.746,373.278)">
        <path d="M417.355,436.371L313.346,434.081L321.887,451.231L425.485,453.627" style="fill:none;stroke:rgb(0,180,24);stroke-width:15.41px;"/>
    </g>
    <g transform="matrix(-0.105753,-0.303293,-0.422221,0.147221,542.106,373.278)">
        <path d="M417.355,436.371L313.346,434.081L321.887,451.231L425.485,453.627" style="fill:none;stroke:rgb(0,180,24);stroke-width:15.41px;"/>
    </g>
    <g transform="matrix(-0.105753,-0.303293,-0.422221,0.147221,444.664,373.278)">
        <path d="M417.355,436.371L313.346,434.081L321.887,451.231L425.485,453.627" style="fill:none;stroke:rgb(0,180,24);stroke-width:15.41px;"/>
    </g>
    <g transform="matrix(0.648794,0,0,0.648794,61.0365,-192.626)">
        <path d="M130.239,679.472L130.239,825.94" style="fill:none;stroke:rgb(0,180,24);stroke-width:9.25px;"/>
    </g>
    <g transform="matrix(0.235026,0,0,0.235026,129.669,87.9165)">
        <path d="M165.871,607.061L165.871,827.68" style="fill:none;stroke:rgb(0,180,24);stroke-width:25.53px;"/>
    </g>
    <g transform="matrix(1,0,0,1,-122.544,-478.862)">
        <path d="M274.34,701.795C272.649,731.309 181.794,758.267 162.616,689.641C136.172,595.017 253.351,591.681 232.851,626.472C210.072,665.131 148.215,512.545 268.998,509.063C390.38,505.564 348.278,646.593 323.429,613.528C297.342,578.815 404.64,585.834 396.889,659.186C390.178,722.703 286.234,723.183 279.356,677.227" style="fill:none;stroke:rgb(0,180,24);stroke-width:6px;"/>
    </g>
    <g transform="matrix(0.975278,0.220983,-0.220983,0.975278,75.1529,-671.58)">
        <path d="M876.983,615.142C876.983,615.142 904.19,602.83 918.979,615.689C923.115,619.286 932.074,615.036 939.374,616.555C941.907,617.082 926.561,622.962 928.152,628.211C933.499,645.856 916.639,651.665 916.639,651.665C913.886,637.499 903.269,639.444 877.509,650.506C899.172,635.958 897.784,621.874 876.983,615.142Z" style="fill:none;stroke:rgb(0,180,24);stroke-width:6px;"/>
    </g>
    <g transform="matrix(1,0,0,1,-117.068,-487.423)">
        <circle cx="811.138" cy="668.691" r="1.679" style="fill:rgb(0,179,23);stroke:rgb(0,180,24);stroke-width:6px;"/>
    </g>
    <g transform="matrix(1,0,0,1,-91.5371,-500.276)">
        <circle cx="811.138" cy="668.691" r="1.679" style="fill:rgb(0,179,23);stroke:rgb(0,180,24);stroke-width:6px;"/>
    </g>
    <g transform="matrix(1,0,0,1,-60.1648,-507.099)">
        <circle cx="811.138" cy="668.691" r="1.679" style="fill:rgb(0,179,23);stroke:rgb(0,180,24);stroke-width:6px;"/>
    </g>
</svg>
