<?xml version="1.0" encoding="UTF-8" standalone="no"?>
<!DOCTYPE svg PUBLIC "-//W3C//DTD SVG 1.1//EN" "http://www.w3.org/Graphics/SVG/1.1/DTD/svg11.dtd">
<svg width="100%" height="100%" viewBox="0 0 600 600" version="1.1" xmlns="http://www.w3.org/2000/svg" xmlns:xlink="http://www.w3.org/1999/xlink" xml:space="preserve" xmlns:serif="http://www.serif.com/" style="fill-rule:evenodd;clip-rule:evenodd;stroke-linecap:round;stroke-linejoin:round;stroke-miterlimit:1.5;">
    <g transform="matrix(1.67027,0,0,1.67027,-916.617,-303.927)">
        <circle cx="728.395" cy="361.574" r="161.875" style="fill:white;stroke:rgb(0,180,24);stroke-width:3.59px;"/>
    </g>
    <g transform="matrix(3.93862,0,0,4.22253,-5164.6,-2773.16)">
        <path d="M1338.61,772.288L1436.82,772.288" style="fill:none;stroke:rgb(0,177,23);stroke-width:1.47px;"/>
    </g>
    <g transform="matrix(0.119089,-0.341542,0.475469,0.165787,83.224,511.229)">
        <path d="M426.711,434.027L313.346,434.081L321.887,451.231L434.842,451.284" style="fill:none;stroke:rgb(0,180,24);stroke-width:13.69px;"/>
    </g>
    <g transform="matrix(0.119089,-0.341542,0.475469,0.165787,-26.5069,511.229)">
        <path d="M426.711,434.027L313.346,434.081L321.887,451.231L434.842,451.284" style="fill:none;stroke:rgb(0,180,24);stroke-width:13.69px;"/>
    </g>
    <g transform="matrix(-0.119089,-0.341542,-0.475469,0.165787,647.868,511.229)">
        <path d="M426.711,434.027L313.346,434.081L321.887,451.231L434.842,451.284" style="fill:none;stroke:rgb(0,180,24);stroke-width:13.69px;"/>
    </g>
    <g transform="matrix(0.180022,0,0,0.180022,38.8515,319.978)">
        <path d="M1930.83,563.11L1019.63,563.11C1003.87,563.11 991.083,575.901 991.083,591.656C991.083,607.411 1003.87,620.201 1019.63,620.201L1919.8,620.201" style="fill:none;stroke:rgb(0,180,24);stroke-width:33.33px;"/>
    </g>
    <g transform="matrix(0.578191,0,0,0.578191,68.1998,191.02)">
        <path d="M558.7,415.563L601.635,292.6L348.469,292.6L314.866,388.538" style="fill:none;stroke:rgb(0,180,24);stroke-width:10.38px;"/>
    </g>
    <g transform="matrix(0.194527,0,0,0.194527,193.785,350.457)">
        <path d="M996.257,334.903L1011.03,292.6L348.469,292.6L334.19,333.368" style="fill:none;stroke:rgb(0,180,24);stroke-width:30.84px;"/>
    </g>
    <g transform="matrix(-0.119089,-0.341542,-0.475469,0.165787,538.137,511.229)">
        <path d="M426.711,434.027L313.346,434.081L321.887,451.231L434.842,451.284" style="fill:none;stroke:rgb(0,180,24);stroke-width:13.69px;"/>
    </g>
    <g transform="matrix(0.730616,0,0,0.730616,106.13,-126.044)">
        <path d="M130.239,679.472L130.239,825.94" style="fill:none;stroke:rgb(0,180,24);stroke-width:8.21px;"/>
    </g>
    <g transform="matrix(0.264666,0,0,0.264666,183.417,189.879)">
        <path d="M165.871,607.061L165.871,827.68" style="fill:none;stroke:rgb(0,180,24);stroke-width:22.67px;"/>
    </g>
    <g transform="matrix(1.12611,0,0,1.12611,-100.603,-448.378)">
        <path d="M274.34,701.795C272.649,731.309 181.794,758.267 162.616,689.641C136.172,595.017 253.351,591.681 232.851,626.472C210.072,665.131 148.215,512.545 268.998,509.063C390.38,505.564 348.278,646.593 323.429,613.528C297.342,578.815 404.64,585.834 396.889,659.186C390.178,722.703 286.234,723.183 279.356,677.227" style="fill:none;stroke:rgb(0,180,24);stroke-width:5.33px;"/>
    </g>
    <g transform="matrix(1.35826,0,0,1.35826,-1503.03,-106.062)">
        <g transform="matrix(123.43,44.7994,-44.7994,123.43,1316.86,202.977)">
            <path d="M0.59,-0.05C0.59,-0.057 0.585,-0.064 0.577,-0.071C0.561,-0.083 0.546,-0.095 0.531,-0.107L0.485,-0.143C0.469,-0.155 0.454,-0.167 0.44,-0.179C0.424,-0.191 0.409,-0.204 0.395,-0.218L0.332,-0.281C0.311,-0.302 0.29,-0.323 0.269,-0.345L0.262,-0.352L0.3,-0.393C0.31,-0.403 0.317,-0.411 0.322,-0.417C0.343,-0.438 0.365,-0.459 0.388,-0.48C0.411,-0.5 0.435,-0.52 0.46,-0.538C0.461,-0.539 0.463,-0.541 0.467,-0.543L0.477,-0.549C0.484,-0.553 0.491,-0.557 0.498,-0.561C0.505,-0.565 0.512,-0.569 0.52,-0.574C0.527,-0.578 0.531,-0.581 0.531,-0.585C0.531,-0.6 0.526,-0.612 0.516,-0.621C0.506,-0.629 0.491,-0.633 0.472,-0.633C0.468,-0.633 0.463,-0.631 0.458,-0.629C0.452,-0.626 0.446,-0.623 0.44,-0.62C0.434,-0.616 0.429,-0.613 0.425,-0.609C0.42,-0.605 0.416,-0.602 0.414,-0.6C0.39,-0.578 0.366,-0.557 0.344,-0.535C0.321,-0.512 0.299,-0.489 0.277,-0.466C0.266,-0.454 0.255,-0.442 0.243,-0.429C0.231,-0.416 0.218,-0.403 0.206,-0.389L0.168,-0.349L0.134,-0.311L0.134,-0.376C0.134,-0.4 0.136,-0.424 0.138,-0.449C0.139,-0.474 0.141,-0.499 0.145,-0.523C0.148,-0.547 0.153,-0.568 0.159,-0.587C0.16,-0.592 0.162,-0.597 0.166,-0.603C0.17,-0.607 0.173,-0.612 0.177,-0.618C0.179,-0.621 0.182,-0.625 0.185,-0.629C0.187,-0.633 0.189,-0.637 0.189,-0.643C0.189,-0.648 0.187,-0.653 0.184,-0.659C0.181,-0.665 0.177,-0.67 0.173,-0.675C0.168,-0.679 0.163,-0.682 0.158,-0.685C0.152,-0.688 0.146,-0.69 0.14,-0.69C0.13,-0.69 0.12,-0.687 0.112,-0.682C0.104,-0.676 0.098,-0.669 0.095,-0.66C0.093,-0.654 0.091,-0.648 0.09,-0.643L0.087,-0.624C0.085,-0.617 0.085,-0.61 0.085,-0.604C0.085,-0.597 0.084,-0.591 0.083,-0.585C0.075,-0.541 0.07,-0.497 0.066,-0.454C0.062,-0.41 0.06,-0.367 0.06,-0.323C0.06,-0.293 0.061,-0.264 0.063,-0.235C0.065,-0.205 0.067,-0.177 0.071,-0.151C0.074,-0.124 0.078,-0.101 0.082,-0.081C0.086,-0.06 0.09,-0.045 0.094,-0.035C0.101,-0.019 0.114,-0.012 0.134,-0.012C0.15,-0.012 0.162,-0.015 0.17,-0.021C0.176,-0.027 0.18,-0.035 0.18,-0.045C0.18,-0.051 0.176,-0.06 0.17,-0.074C0.167,-0.079 0.164,-0.085 0.161,-0.093C0.157,-0.099 0.155,-0.105 0.154,-0.111C0.15,-0.126 0.147,-0.145 0.145,-0.167C0.142,-0.189 0.14,-0.209 0.138,-0.229C0.15,-0.239 0.163,-0.25 0.176,-0.263C0.189,-0.275 0.204,-0.289 0.22,-0.307C0.254,-0.268 0.29,-0.229 0.329,-0.189C0.36,-0.157 0.391,-0.127 0.422,-0.099C0.453,-0.071 0.483,-0.048 0.511,-0.028C0.52,-0.02 0.531,-0.017 0.545,-0.017C0.557,-0.017 0.567,-0.02 0.576,-0.026C0.585,-0.032 0.59,-0.04 0.59,-0.05Z" style="fill:rgb(0,181,23);fill-rule:nonzero;"/>
        </g>
        <g transform="matrix(71.2216,110.315,-110.315,71.2216,1379.18,219.429)">
            <path d="M0.552,-0.198C0.552,-0.207 0.547,-0.214 0.538,-0.22C0.529,-0.225 0.52,-0.228 0.511,-0.228C0.503,-0.228 0.497,-0.226 0.493,-0.224C0.488,-0.221 0.484,-0.217 0.481,-0.213C0.475,-0.206 0.47,-0.199 0.466,-0.193C0.46,-0.186 0.455,-0.18 0.449,-0.174C0.437,-0.161 0.424,-0.149 0.41,-0.137C0.394,-0.125 0.378,-0.114 0.361,-0.105C0.343,-0.095 0.325,-0.088 0.307,-0.083C0.288,-0.077 0.269,-0.074 0.251,-0.074C0.235,-0.074 0.22,-0.077 0.206,-0.083C0.19,-0.089 0.177,-0.099 0.166,-0.113C0.154,-0.125 0.144,-0.142 0.137,-0.163C0.129,-0.183 0.126,-0.208 0.126,-0.237C0.126,-0.255 0.126,-0.276 0.128,-0.299C0.13,-0.321 0.132,-0.342 0.134,-0.361C0.14,-0.404 0.149,-0.443 0.162,-0.479C0.174,-0.513 0.188,-0.543 0.204,-0.567C0.22,-0.591 0.237,-0.61 0.255,-0.624C0.273,-0.637 0.29,-0.644 0.307,-0.644C0.315,-0.644 0.323,-0.642 0.331,-0.64C0.338,-0.637 0.345,-0.633 0.352,-0.629C0.361,-0.622 0.37,-0.615 0.378,-0.607C0.386,-0.599 0.394,-0.59 0.401,-0.582C0.405,-0.575 0.409,-0.57 0.413,-0.568C0.417,-0.564 0.422,-0.56 0.428,-0.558C0.432,-0.555 0.437,-0.554 0.443,-0.554C0.452,-0.554 0.461,-0.556 0.47,-0.561C0.478,-0.566 0.483,-0.573 0.483,-0.583C0.483,-0.586 0.482,-0.589 0.48,-0.593L0.476,-0.601C0.466,-0.612 0.455,-0.623 0.443,-0.635C0.43,-0.647 0.416,-0.657 0.401,-0.667C0.385,-0.676 0.369,-0.684 0.352,-0.69C0.335,-0.696 0.318,-0.699 0.3,-0.699C0.276,-0.699 0.254,-0.694 0.233,-0.685C0.211,-0.675 0.193,-0.664 0.178,-0.65C0.152,-0.626 0.13,-0.598 0.113,-0.565C0.095,-0.532 0.081,-0.497 0.07,-0.461C0.059,-0.423 0.051,-0.386 0.047,-0.349C0.042,-0.311 0.04,-0.277 0.04,-0.247C0.04,-0.226 0.042,-0.205 0.046,-0.185C0.049,-0.164 0.055,-0.144 0.064,-0.126C0.073,-0.107 0.085,-0.09 0.101,-0.074C0.116,-0.058 0.135,-0.044 0.158,-0.033C0.188,-0.017 0.221,-0.01 0.257,-0.01C0.295,-0.01 0.328,-0.015 0.358,-0.025C0.388,-0.035 0.414,-0.049 0.438,-0.065C0.461,-0.081 0.482,-0.1 0.5,-0.121C0.517,-0.141 0.532,-0.161 0.546,-0.181L0.55,-0.189C0.551,-0.191 0.552,-0.194 0.552,-0.198Z" style="fill:rgb(0,181,23);fill-rule:nonzero;"/>
        </g>
        <g transform="matrix(-3.74655,131.255,-131.255,-3.74655,1415.14,262.027)">
            <path d="M0.541,-0.441C0.541,-0.463 0.537,-0.487 0.53,-0.512C0.522,-0.536 0.512,-0.559 0.498,-0.581C0.484,-0.603 0.468,-0.622 0.448,-0.639C0.428,-0.655 0.405,-0.668 0.381,-0.676C0.369,-0.679 0.356,-0.681 0.344,-0.683C0.331,-0.684 0.318,-0.685 0.305,-0.685C0.286,-0.685 0.269,-0.683 0.255,-0.681C0.24,-0.679 0.228,-0.676 0.218,-0.673C0.212,-0.671 0.204,-0.667 0.196,-0.663C0.187,-0.658 0.178,-0.653 0.169,-0.647C0.168,-0.649 0.167,-0.651 0.167,-0.655C0.166,-0.659 0.166,-0.662 0.166,-0.665C0.162,-0.671 0.157,-0.675 0.149,-0.679C0.141,-0.683 0.133,-0.685 0.126,-0.685C0.121,-0.685 0.116,-0.684 0.11,-0.683C0.104,-0.682 0.098,-0.681 0.093,-0.679C0.087,-0.677 0.083,-0.674 0.08,-0.671C0.076,-0.667 0.074,-0.662 0.074,-0.656C0.074,-0.652 0.075,-0.647 0.078,-0.641L0.081,-0.633C0.081,-0.63 0.082,-0.626 0.082,-0.621L0.082,-0.612C0.074,-0.57 0.068,-0.527 0.065,-0.485C0.061,-0.442 0.06,-0.399 0.06,-0.356C0.06,-0.334 0.06,-0.307 0.062,-0.277C0.062,-0.247 0.064,-0.216 0.066,-0.185C0.068,-0.153 0.072,-0.123 0.076,-0.094C0.08,-0.064 0.086,-0.04 0.093,-0.02C0.095,-0.012 0.1,-0.007 0.108,-0.003C0.115,0.001 0.123,0.003 0.132,0.003C0.143,0.003 0.153,0.001 0.162,-0.003C0.17,-0.007 0.175,-0.013 0.175,-0.023C0.175,-0.028 0.173,-0.033 0.169,-0.039C0.167,-0.043 0.165,-0.047 0.164,-0.051L0.161,-0.061C0.155,-0.082 0.151,-0.106 0.148,-0.134C0.144,-0.161 0.14,-0.192 0.138,-0.226C0.166,-0.214 0.191,-0.206 0.214,-0.201C0.237,-0.196 0.257,-0.194 0.275,-0.194C0.317,-0.194 0.355,-0.2 0.388,-0.212C0.421,-0.224 0.449,-0.24 0.472,-0.262C0.494,-0.283 0.512,-0.309 0.524,-0.339C0.535,-0.369 0.541,-0.403 0.541,-0.441ZM0.466,-0.431C0.466,-0.404 0.46,-0.38 0.45,-0.359C0.44,-0.337 0.426,-0.318 0.408,-0.303C0.39,-0.287 0.368,-0.275 0.344,-0.267C0.32,-0.259 0.294,-0.255 0.267,-0.255C0.247,-0.255 0.229,-0.257 0.213,-0.263C0.196,-0.267 0.179,-0.274 0.162,-0.284C0.158,-0.286 0.154,-0.289 0.15,-0.291L0.135,-0.3C0.134,-0.311 0.134,-0.321 0.134,-0.329C0.134,-0.337 0.135,-0.346 0.135,-0.354C0.135,-0.372 0.135,-0.387 0.136,-0.399L0.136,-0.432L0.138,-0.457L0.14,-0.48C0.144,-0.495 0.149,-0.51 0.156,-0.525C0.162,-0.539 0.169,-0.55 0.177,-0.558C0.198,-0.58 0.219,-0.597 0.24,-0.607C0.26,-0.617 0.28,-0.622 0.302,-0.622C0.322,-0.622 0.342,-0.618 0.362,-0.612C0.381,-0.605 0.398,-0.594 0.414,-0.579C0.43,-0.564 0.442,-0.545 0.452,-0.521C0.461,-0.496 0.466,-0.466 0.466,-0.431Z" style="fill:rgb(0,181,23);fill-rule:nonzero;"/>
        </g>
    </g>
</svg>
